<svg width="112" height="112" fill="none" xmlns="http://www.w3.org/2000/svg"><circle cx="56" cy="56" r="56" fill="#fff"/><path d="M40.166 77.692a3.145 3.145 0 01-.166-1.01V34.496c0-.157.011-.312.034-.463.155-.022.316-.033.48-.033 1.22 0 1.732 1.494 2.598 1.494.866 0 1.38-1.494 2.598-1.494 1.2 0 1.721 1.45 2.581 1.45.86 0 1.382-1.45 2.581-1.45 1.198 0 1.72 1.45 2.58 1.45.86 0 1.382-1.45 2.581-1.45 1.198 0 1.72 1.45 2.58 1.45.861 0 1.382-1.45 2.581-1.45 1.2 0 1.721 1.45 2.58 1.45.861 0 1.382-1.45 2.581-1.45 1.2 0 1.721 1.45 2.581 1.45.86 0 1.381-1.45 2.58-1.45.164 0 .325.01.481.033.022.15.034.306.034.463v42.188c0 .356-.059.696-.165 1.009a3.354 3.354 0 01-.35.018c-1.199 0-1.72-1.453-2.58-1.453-.86 0-1.382 1.453-2.58 1.453-1.2 0-1.72-1.453-2.582-1.453-.859 0-1.38 1.453-2.58 1.453-1.199 0-1.72-1.453-2.58-1.453-.86 0-1.383 1.453-2.58 1.453-1.2 0-1.722-1.453-2.582-1.453-.86 0-1.382 1.453-2.58 1.453-1.199 0-1.72-1.453-2.58-1.453-.86 0-1.383 1.453-2.582 1.453-1.218 0-1.732-1.495-2.598-1.495-.866 0-1.379 1.495-2.598 1.495-.118 0-.235-.006-.349-.018" fill="#71D9F0"/><path d="M53.295 46.427v.12a.682.682 0 01-.682.68H48.55a.682.682 0 01-.682-.68v-.12c0-.376.305-.682.68-.682h4.064c.376 0 .682.306.682.682zm6.982 0v.12a.682.682 0 01-.682.68h-4.062a.682.682 0 01-.682-.68v-.12c0-.376.306-.682.682-.682h4.062c.376 0 .682.306.682.682zm6.983 0v.12a.682.682 0 01-.682.68h-4.062a.682.682 0 01-.682-.68v-.12c0-.376.306-.682.682-.682h4.062c.376 0 .682.306.682.682zm-22.282.06a.742.742 0 11-1.483 0 .742.742 0 011.483 0zm8.317 3.687v.12a.683.683 0 01-.682.681H48.55a.683.683 0 01-.682-.682v-.12c0-.375.305-.68.68-.68h4.064c.376 0 .682.305.682.681zm6.982 0v.12a.683.683 0 01-.682.681h-4.062a.683.683 0 01-.682-.682v-.12c0-.375.306-.68.682-.68h4.062c.376 0 .682.305.682.681zm6.983 0v.12a.683.683 0 01-.682.681h-4.062a.683.683 0 01-.682-.682v-.12c0-.375.306-.68.682-.68h4.062c.376 0 .682.305.682.681zm-22.282.06a.743.743 0 01-1.026.684.74.74 0 111.026-.685v.001zm8.317 3.687v.12a.683.683 0 01-.682.681H48.55a.683.683 0 01-.682-.682v-.12c0-.375.305-.68.68-.68h4.064c.376 0 .682.305.682.681zm6.982 0v.12a.683.683 0 01-.682.681h-4.062a.683.683 0 01-.682-.682v-.12c0-.375.306-.68.682-.68h4.062c.376 0 .682.305.682.681zm6.983 0v.12a.683.683 0 01-.682.681h-4.062a.683.683 0 01-.682-.682v-.12c0-.375.306-.68.682-.68h4.062c.376 0 .682.305.682.681zm-22.282.06a.743.743 0 01-1.026.684.74.74 0 111.026-.685v.001zm8.317 3.688v.117a.683.683 0 01-.682.683H48.55a.683.683 0 01-.682-.683v-.117c0-.377.305-.683.68-.683h4.064c.376 0 .682.306.682.683zm6.982 0v.117a.683.683 0 01-.682.683h-4.062a.683.683 0 01-.682-.683v-.117c0-.377.306-.683.682-.683h4.062c.376 0 .682.306.682.683zm6.983 0v.117a.683.683 0 01-.682.683h-4.062a.683.683 0 01-.682-.683v-.117c0-.377.306-.683.682-.683h4.062c.376 0 .682.306.682.683zm-22.282.06a.742.742 0 11-1.485-.003.742.742 0 011.485.002zm8.317 3.687v.117a.683.683 0 01-.682.683H48.55a.683.683 0 01-.682-.683v-.117c0-.377.305-.682.68-.682h4.064c.376 0 .682.305.682.681v.001zm6.982 0v.117a.683.683 0 01-.682.683h-4.062a.683.683 0 01-.682-.683v-.117c0-.377.306-.682.682-.682h4.062c.376 0 .682.305.682.681v.001zm6.983 0v.117a.683.683 0 01-.682.683h-4.062a.683.683 0 01-.682-.683v-.117c0-.377.306-.682.682-.682h4.062c.376 0 .682.305.682.681v.001zm-22.282.06zm8.317 3.687v.12a.683.683 0 01-.682.681H48.55a.683.683 0 01-.682-.682v-.12c0-.375.305-.68.68-.68h4.064c.376 0 .682.305.682.681zm6.982 0v.12a.683.683 0 01-.682.681h-4.062a.683.683 0 01-.682-.682v-.12c0-.375.306-.68.682-.68h4.062c.376 0 .682.305.682.681zm6.983 0v.12a.683.683 0 01-.682.681h-4.062a.683.683 0 01-.682-.682v-.12c0-.375.306-.68.682-.68h4.062c.376 0 .682.305.682.681zm-22.282.06a.743.743 0 01-1.026.684.74.74 0 111.026-.685v.001z" fill="#1D3D56"/><path d="M72.031 48.311a7.546 7.546 0 017.542 7.543 7.544 7.544 0 01-12.874 5.332 7.544 7.544 0 01-2.21-5.332 7.546 7.546 0 017.542-7.543" fill="#98A7AB"/><path d="M70.916 56.578l3.362-3.432 1 .981-4.343 4.434-.015-.014-.006.006-.704-.7-.276-.272.002-.003-1.448-1.444.989-.993 1.439 1.437z" fill="#1D3D56"/></svg>