<svg width="112" height="112" fill="none" xmlns="http://www.w3.org/2000/svg"><circle cx="56" cy="56" r="56" fill="#fff"/><path d="M41.04 37.492c10.262 0 15.25-7.744 15.382-7.486.108-.216 5.087 7.421 15.35 7.421 2.16 0 4.207-.588 6.04-1.641V57.38c0 12.602-21.316 24.702-21.468 24.62C56.272 82.037 35 70.049 35 57.444V35.85c1.834 1.054 3.88 1.642 6.04 1.642" fill="#71D9F0"/><path d="M52.57 49.68a3.84 3.84 0 013.836-3.836 3.84 3.84 0 013.834 3.835 3.839 3.839 0 01-3.834 3.833 3.839 3.839 0 01-3.835-3.833zm9.152 0a5.323 5.323 0 00-5.316-5.318 5.323 5.323 0 00-5.316 5.317 5.323 5.323 0 004.575 5.264v13.092a.74.74 0 101.48 0v-.673h2.48a.537.537 0 000-1.07h-2.48v-.75h2.48a.537.537 0 000-1.071h-2.48v-9.53a5.324 5.324 0 004.577-5.263" fill="#1D3D56"/><path d="M75.603 47.566c4.651 0 8.429 3.776 8.429 8.428 0 4.653-3.778 8.429-8.429 8.429a8.432 8.432 0 01-8.428-8.429 8.432 8.432 0 018.428-8.428" fill="#98A7AB"/><path d="M74.358 56.802l3.756-3.833 1.12 1.096-4.856 4.955-.016-.016-.007.007-.786-.784-.31-.303.004-.003-1.62-1.614 1.105-1.108 1.61 1.603z" fill="#249357"/></svg>